<svg id="Layer_1" data-name="Layer 1" xmlns="http://www.w3.org/2000/svg" width="4416.47" height="4214.94" viewBox="0 0 4416.47 4214.94"><defs><style>.cls-1{fill:#050505;}.cls-2{fill:#e2e2f7;}.cls-3{fill:#d9d9e8;}.cls-4{fill:#fec524;}.cls-5{fill:#28aff9;}.cls-6{fill:#3d3223;}.cls-7{fill:#db9a16;}.cls-8{fill:#3d3c3c;}.cls-9{fill:#595858;}.cls-10{fill:#637b84;}.cls-11{fill:#3aaddb;}.cls-12{fill:#fc4427;}.cls-13{fill:#6a767c;}</style></defs><title>503</title><path class="cls-1" d="M4416.47,3628.29c0,68.29-59.66,122.94-132.75,122.94H1328.39c-73.1,0-133.15-54.65-133.15-122.94V1734c0-68.29,60-123.79,133.15-123.79H4283.72c73.09,0,132.75,55.5,132.75,123.79Z" transform="translate(0 -0.04)"/><circle class="cls-2" cx="2805.94" cy="3621.6" r="64.86" transform="translate(-1172.33 1349.43) rotate(-22.5)"/><path class="cls-2" d="M4169.78,1782.39H1480.3c-73.09,0-132.33,51.43-132.33,114.5V3398.14c0,5.19,1.09,10.28,1.86,15.27L4240,1800.08A148.67,148.67,0,0,0,4169.78,1782.39Z" transform="translate(0 -0.04)"/><path class="cls-3" d="M4240.08,1800.45,1350.36,3412.81c8.49,55.62,62.86,96.83,129.94,96.83H4169.78c73.09,0,132.83-48.44,132.83-111.5V1896.89C4302.61,1856.11,4277.66,1820.52,4240.08,1800.45Z" transform="translate(0 -0.04)"/><polygon class="cls-1" points="3348.61 4145.51 2325.72 4151.23 2562.81 3751.19 3106.07 3751.19 3348.61 4145.51"/><rect class="cls-1" x="2028.31" y="4145.51" width="1616.17" height="69.42"/><rect class="cls-4" x="1617" y="2218.96" width="1884" height="436"/><rect class="cls-5" x="1617" y="1956.96" width="747" height="206"/><path class="cls-6" d="M3405,2036.53a9.82,9.82,0,0,1-3.58-.67l-562.24-104.72a10,10,0,0,1,7.16-18.68l562.24,104.73a10,10,0,0,1-3.58,19.34Z" transform="translate(0 -0.04)"/><path class="cls-6" d="M1936.69,1145.3c-106.58,0-219.13-15.77-336.41-47.24-162.4-43.57-304-109.82-394.27-157.72-97.82-51.92-158.18-94.21-158.78-94.64l11.52-16.35c.59.41,60.22,42.18,157.12,93.59,89.33,47.39,229.53,112.92,390.11,155.94,282.38,75.66,683.65,94.56,991.61-245.07l14.82,13.43c-72.66,80.13-154.23,145-242.46,192.88-80.24,43.52-167.75,73.92-260.09,90.33A988.73,988.73,0,0,1,1936.69,1145.3Z" transform="translate(0 -0.04)"/><rect class="cls-6" x="2726" y="941.49" width="20" height="538"/><rect class="cls-6" x="2869" y="941.49" width="20" height="538"/><path class="cls-6" d="M2052.34,591.53a10,10,0,0,1-4.13-.9L817.36,31a10,10,0,1,1,8.28-18.2L2056.49,572.42a10,10,0,0,1-4.15,19.11Z" transform="translate(0 -0.04)"/><path class="cls-6" d="M10,591.53a10,10,0,0,1-6-18L754.69,13.84a10,10,0,0,1,11.95,16L16,589.54A10,10,0,0,1,10,591.53Z" transform="translate(0 -0.04)"/><circle class="cls-7" cx="794.21" cy="61.25" r="61.21" transform="translate(189.31 579.49) rotate(-45)"/><rect class="cls-8" x="136" y="471.49" width="152" height="470"/><circle class="cls-9" cx="794.3" cy="61.34" r="42.3" transform="translate(606.52 835.53) rotate(-80.78)"/><rect class="cls-8" x="303" y="471.49" width="152" height="470"/><polygon class="cls-4" points="993 832.49 674 832.49 674 472.49 993 472.49 1052.99 652.49 993 832.49"/><path class="cls-10" d="M951.17,472.53H717v-405H865.1ZM737,452.53H926.47l-77.57-365H737Z" transform="translate(0 -0.04)"/><path class="cls-10" d="M910.45,472.31,729.79,411A10,10,0,0,1,733,391.53H867.29L728.11,332.74A10,10,0,0,1,732,313.53H857.39l-126.78-62a10,10,0,0,1,4.39-19H848.78L730.66,158A10,10,0,0,1,736,139.53h86.26L722.11,86.78l9.32-17.69,135.93,71.59a10,10,0,0,1-4.66,18.85H770.58L888.7,234.07a10,10,0,0,1-5.33,18.46H778.2l126.78,62a10,10,0,0,1-4.39,19H781.37l139.18,58.78a10,10,0,0,1-3.89,19.22H793.58l123.3,41.84Z" transform="translate(0 -0.04)"/><rect class="cls-10" x="2215.68" y="688.71" width="274.17" height="20" transform="translate(672.65 2487.78) rotate(-63.34)"/><rect class="cls-10" x="2467.13" y="561.3" width="20" height="280.13" transform="translate(-51.26 1186.41) rotate(-26.67)"/><rect class="cls-10" x="2464.68" y="693.71" width="274.17" height="20" transform="translate(805.45 2713.06) rotate(-63.34)"/><rect class="cls-10" x="2716.13" y="566.3" width="20" height="280.13" transform="translate(-27.02 1298.71) rotate(-26.67)"/><rect class="cls-10" x="2713.68" y="693.71" width="274.17" height="20" transform="translate(942.73 2935.59) rotate(-63.34)"/><rect class="cls-10" x="2965.13" y="566.3" width="20" height="280.13" transform="translate(-0.53 1410.47) rotate(-26.67)"/><rect class="cls-10" x="2962.68" y="693.71" width="274.17" height="20" transform="translate(1080 3158.12) rotate(-63.34)"/><rect class="cls-10" x="1966.68" y="689.71" width="274.17" height="20" transform="translate(534.52 2265.84) rotate(-63.34)"/><rect class="cls-10" x="2218.13" y="562.3" width="20" height="280.13" transform="translate(-78.2 1074.76) rotate(-26.67)"/><rect class="cls-10" x="1717.68" y="691.71" width="274.17" height="20" transform="translate(395.45 2044.41) rotate(-63.34)"/><rect class="cls-10" x="1969.13" y="564.3" width="20" height="280.13" transform="translate(-105.59 963.21) rotate(-26.67)"/><rect class="cls-10" x="1468.68" y="688.71" width="274.17" height="20" transform="translate(260.85 1820.23) rotate(-63.34)"/><rect class="cls-10" x="1720.13" y="561.3" width="20" height="280.13" transform="translate(-130.73 851.13) rotate(-26.67)"/><rect class="cls-10" x="1212.26" y="692.49" width="282.81" height="20" transform="translate(117.36 1595.45) rotate(-63.27)"/><rect class="cls-10" x="1470.13" y="561.3" width="20" height="280.13" transform="translate(-157.33 738.92) rotate(-26.67)"/><rect class="cls-10" x="952.51" y="693.86" width="284.97" height="20" transform="translate(-21.93 1372.35) rotate(-63.64)"/><rect class="cls-10" x="1211.13" y="561.3" width="20" height="280.13" transform="translate(-184.89 622.67) rotate(-26.67)"/><rect class="cls-10" x="1150" y="571.32" width="2256.27" height="20"/><path class="cls-10" d="M3532,841.53H10a10,10,0,0,1-10-10v-250a10,10,0,0,1,10-10l542.94-.33v20L20,591.52v230H3274.41l122.92-244.82a10,10,0,0,1,17.87,0L3540.94,827a10,10,0,0,1-8.94,14.49Zm-235.21-20h219l-109.52-218Z" transform="translate(0 -0.04)"/><rect class="cls-10" x="343.68" y="693.71" width="274.17" height="20" transform="translate(-363.85 817.58) rotate(-63.34)"/><rect class="cls-10" x="595.13" y="566.3" width="20" height="280.13" transform="translate(-252.67 346.72) rotate(-26.67)"/><rect class="cls-10" x="81.68" y="693.71" width="274.17" height="20" transform="translate(-508.29 583.44) rotate(-63.34)"/><rect class="cls-10" x="333.13" y="566.3" width="20" height="280.13" transform="translate(-280.54 229.12) rotate(-26.67)"/><rect class="cls-10" x="75.36" y="567.73" width="20" height="277.59" transform="translate(-298.55 107.25) rotate(-25.76)"/><path class="cls-10" d="M946,4053.53H697a10,10,0,0,1-10-10v-3102a10,10,0,0,1,10-10H946a10,10,0,0,1,10,10v3102A10,10,0,0,1,946,4053.53Zm-239-20H936v-3082H707Z" transform="translate(0 -0.04)"/><path class="cls-10" d="M941.66,1196.27l-249-120a10,10,0,0,1-.17-17.94l249-125.72,9,17.85L719.6,1067l230.74,111.21Z" transform="translate(0 -0.04)"/><path class="cls-10" d="M941.66,1442.27l-249-120a10,10,0,0,1-.17-17.94l249-125.72,9,17.85L719.6,1313l230.74,111.21Z" transform="translate(0 -0.04)"/><path class="cls-10" d="M941.66,1688.27l-249-120a10,10,0,0,1-.17-17.94l249-125.72,9,17.85L719.6,1559l230.74,111.21Z" transform="translate(0 -0.04)"/><path class="cls-10" d="M941.66,1934.27l-249-120a10,10,0,0,1-.17-17.94l249-125.72,9,17.85L719.6,1805l230.74,111.21Z" transform="translate(0 -0.04)"/><path class="cls-10" d="M941.66,2180.27l-249-120a10,10,0,0,1-.17-17.94l249-125.72,9,17.85L719.6,2051l230.74,111.21Z" transform="translate(0 -0.04)"/><path class="cls-10" d="M941.66,2426.27l-249-120a10,10,0,0,1-.17-17.94l249-125.72,9,17.85L719.6,2297l230.74,111.21Z" transform="translate(0 -0.04)"/><path class="cls-10" d="M941.66,2672.27l-249-120a10,10,0,0,1-.17-17.94l249-125.72,9,17.85L719.6,2543l230.74,111.21Z" transform="translate(0 -0.04)"/><rect class="cls-10" x="682.03" y="2716.39" width="278.94" height="20" transform="translate(-1140.67 662.87) rotate(-26.79)"/><path class="cls-10" d="M945.66,3176.27l-249-120a10,10,0,0,1-.17-17.94l249-125.72,9,17.85L723.6,3047l230.74,111.21Z" transform="translate(0 -0.04)"/><path class="cls-10" d="M945.66,3422.27l-249-120a10,10,0,0,1-.17-17.94l249-125.72,9,17.85L723.6,3293l230.74,111.21Z" transform="translate(0 -0.04)"/><path class="cls-10" d="M945.66,3668.27l-249-120a10,10,0,0,1-.17-17.94l249-125.72,9,17.85L723.6,3539l230.74,111.21Z" transform="translate(0 -0.04)"/><path class="cls-10" d="M945.73,3914.57l-255-120.28a10,10,0,0,1-.24-18l249-125.72,9,17.85L717.79,3784.94l236.48,111.54Z" transform="translate(0 -0.04)"/><rect class="cls-10" x="686.03" y="3958.39" width="278.94" height="20" transform="translate(-1700.04 797.98) rotate(-26.79)"/><rect class="cls-10" x="815.5" y="2720.92" width="20" height="278.94" transform="translate(-2099.94 2308.02) rotate(-63.21)"/><rect class="cls-8" x="631" y="840.49" width="202" height="101"/><rect class="cls-9" x="833" y="840.49" width="202" height="101"/><rect class="cls-8" x="550" y="4052.49" width="274" height="149"/><rect class="cls-9" x="822" y="4052.49" width="274" height="149"/><rect class="cls-8" x="2605" y="840.49" width="404" height="101"/><polygon class="cls-11" points="988.49 734.49 794 734.49 794 513.49 967 513.49 1012.77 647.51 988.49 734.49"/><circle class="cls-7" cx="2807.48" cy="1468.52" r="82.48" transform="translate(908.21 4004.48) rotate(-80.78)"/><circle class="cls-9" cx="2807.61" cy="1468.61" r="57"/><path class="cls-4" d="M2862,1694.53a15,15,0,0,1-15,15h-81a15,15,0,0,1-15-15l-26-129a15,15,0,0,1,15-15h135a15,15,0,0,1,15,15Z" transform="translate(0 -0.04)"/><path class="cls-9" d="M2788,1709.53v35s-2.81,31.69,19.5,35c16.89,2.53,55.7,1.26,74.47,26.29s12.08,60.44,0,83.87c-10.58,20.51-31.41,41.09-74.47,37.55-45.69-3.76-73.23-27.54-74.48-46.32,0,0,0,58.65,74.48,72.6,61.49,11.52,91.59-8.77,108.27-33.79,18.37-27.56,27.54-48.81,24.25-91.18-2.39-30.84-17.92-65.13-57.58-81.64-36.92-15.37-45.44-11.27-45.44-11.27v-26.13Z" transform="translate(0 -0.04)"/><polygon points="2734.02 1609.98 2729.55 1587.68 2772.33 1550.49 2803.33 1550.49 2734.02 1609.98"/><polygon points="2742.88 1653.94 2738.38 1631.52 2832.67 1550.49 2863.33 1550.49 2742.88 1653.94"/><polygon points="2793.33 1709.49 2762.85 1709.49 2880.94 1607.38 2873.9 1639.93 2793.33 1709.49"/><path d="M2752.66,1701.38l-5-23.39,136.4-124.41s2.41.29,5,6.85-1.66,16.86-1.66,16.86Z" transform="translate(0 -0.04)"/><rect class="cls-10" x="793" y="941.49" width="20" height="3090"/><rect class="cls-10" x="845" y="941.49" width="20" height="3090"/><polygon points="2821.89 1709.49 2866.44 1674.02 2861.87 1696.41 2847 1709.49 2821.89 1709.49"/><rect class="cls-10" x="3210.97" y="566.3" width="20" height="280.13" transform="translate(25.63 1520.81) rotate(-26.67)"/><rect class="cls-12" x="2271" y="2034.49" width="1143" height="369.84"/><path class="cls-6" d="M2279,2038.53a10,10,0,0,1-4-19.18l557.85-109a10,10,0,1,1,7.94,18.35L2283,2037.7A10,10,0,0,1,2279,2038.53Z" transform="translate(0 -0.04)"/><rect class="cls-5" x="1617" y="2725.96" width="570" height="375"/><path class="cls-13" d="M3485.27,3110H3395v-16h90.27c4.19,0,7.73-2.75,7.73-6l16-.06v.06C3509,3100.13,3498.35,3110,3485.27,3110ZM3369,3110H3255v-16h114Zm-140,0H3115v-16h114Zm-139,0H2976v-16h114Zm-140,0H2836v-16h114Zm-139,0H2697v-16h114Zm-140,0H2557v-16h114Zm-139,0H2417v-16h115Zm-140,0H2278v-16h114Zm-141.74-18.74a20.87,20.87,0,0,1-.26-3.26V2976h16v112a4.2,4.2,0,0,0,.06.72ZM3509,3062h-16V2948h16ZM2266,2950h-16V2836h16Zm1243-27h-16V2809h16ZM2266,2811h-16v-70c0-12.13,10.65-22,23.73-22H2295v16h-21.27c-4.19,0-7.73,2.75-7.73,6Zm1243-28h-16v-42c0-3.25-3.54-6-7.73-6H3437v-16h48.27c13.08,0,23.73,9.87,23.73,22Zm-98-48H3297v-16h114Zm-139,0H3158v-16h114Zm-140,0H3018v-16h114Zm-139,0H2878v-16h115Zm-140,0H2739v-16h114Zm-140,0H2599v-16h114Zm-139,0H2460v-16h114Zm-140,0H2320v-16h114Z" transform="translate(0 -0.04)"/><rect class="cls-12" x="3593" y="2218.96" width="546" height="882"/><rect class="cls-13" x="1617" y="3175.96" width="2522" height="52"/><rect class="cls-13" x="1617" y="3256.96" width="2522" height="52"/><rect class="cls-13" x="1617" y="3331.96" width="2522" height="52"/></svg>