<?xml version="1.0" encoding="utf-8"?>
<!-- Generator: Adobe Illustrator 27.0.0, SVG Export Plug-In . SVG Version: 6.00 Build 0)  -->
<svg version="1.1" id="Layer_1" xmlns="http://www.w3.org/2000/svg" xmlns:xlink="http://www.w3.org/1999/xlink" x="0px" y="0px"
	 viewBox="0 0 297.64 141.73" style="enable-background:new 0 0 297.64 141.73;" xml:space="preserve">
<path d="M93.41,30.75h50.53v14.05h-0.73c-0.89-3.55-5.65-12.27-9.12-12.75c-1.94-0.24-4.36-0.32-6.54-0.32h-4.6v48.44
	c0,1.78,0.65,3.23,2.5,4.04c0.97,0.4,5.17,1.05,6.62,1.13v0.56h-26.8v-0.56c1.45-0.08,5.57-0.56,6.62-0.97
	c1.94-0.73,2.5-2.26,2.5-4.04v-48.6h-4.6c-1.78,0-4.6,0.08-6.54,0.32c-3.47,0.48-8.23,9.2-9.12,12.75h-0.73V30.75z M186.81,83.06
	c-1.94,2.02-8.07,1.86-13.72,1.86c-8.15,0-9.61-0.73-9.61-7.35V57.79h8.07c4.36,0,5.73,1.45,6.78,2.58
	c0.97,1.05,2.75,6.05,2.91,8.39h0.73V46.25h-0.73c-0.24,2.1-1.69,6.78-2.91,7.99c-0.97,0.97-2.26,2.58-6.78,2.58h-8.07V31.64h9.12
	c2.58,0,6.22,0.08,8.15,0.32c3.47,0.48,8.15,7.75,9.04,11.3h0.73V30.75h-44.48v0.56c1.45,0.08,4.84,0.56,6.38,1.21
	c2.02,0.81,2.5,2.42,2.5,4.2v43.67c0,1.86-0.56,3.23-2.5,3.96c-1.21,0.48-4.92,0.89-6.38,0.97v0.56h47.79l1.05-15.5h-0.73
	C193.35,72.81,189.23,80.56,186.81,83.06z M250.33,73.61h1.05v1.21c0,7.51-3.55,11.95-10.49,11.95c-6.46,0-9.44-4.52-10.58-13.64
	c-0.81-6.38-2.18-14.77-11.54-14.77h-6.38v22.04c0,1.86,0.56,3.31,2.5,4.04c1.05,0.4,4.44,0.81,5.89,0.89v0.56h-25.27v-0.56
	c1.45-0.08,4.76-0.48,5.81-0.89c1.94-0.73,2.5-2.18,2.5-4.04V36.48c0-1.78-0.48-3.39-2.5-4.03c-1.45-0.48-4.36-1.05-5.81-1.13v-0.56
	h28.17c8.15,0,17.27,3.63,17.27,12.43s-9.2,12.59-15.74,14.05v0.81c5.08,0.56,11.3,2.5,12.92,8.39c1.21,4.44,1.86,8.96,2.91,12.92
	c0.97,3.63,2.91,3.8,4.12,3.8c2.91,0,5.17-2.91,5.17-8.31V73.61z M231.04,44.79c0-9.2-5.41-13-11.54-13h-7.1v25.43h5
	C224.5,57.23,231.04,54,231.04,44.79z M279.55,55.21c-3.63-1.7-7.02-2.5-10.98-4.68c-4.44-2.42-7.27-5.25-7.27-10.17
	c0-6.3,5.01-9.61,9.45-9.61c9.93,0,14.45,8.72,17.11,17.52h0.73l-0.4-18.32h-0.65l-2.82,4.04c-2.83-2.18-7.91-4.28-13.64-4.28
	c-9.2,0-16.14,6.38-16.14,14.93c0,7.18,3.31,11.63,9.52,14.37c4.52,2.02,6.94,2.91,11.54,4.76c4.84,1.94,8.07,5.65,8.07,10.58
	c0,6.05-3.23,11.54-11.22,11.54c-10.01,0-14.93-8.07-18.81-18.08h-0.73l0.56,18.89h0.73l2.83-4.2c2.42,1.94,8.15,4.44,15.26,4.44
	c10.4,0,18.22-6.92,18.24-16.74v-0.11C290.9,61.57,286.47,58.43,279.55,55.21z M69.19,30.75h22.29v13.08h-0.73
	c-1.13-3.55-6.22-11.38-9.69-11.87c-1.94-0.24-5.33-0.32-7.91-0.32h-4.32l-4.96,12.53v12.82h8.15c4.12,0,6.14-1.53,7.18-2.5
	c1.13-1.05,2.58-5,2.91-7.99h0.81v22.68h-0.81c-0.16-2.34-1.78-7.51-2.91-8.64c-1.05-1.05-3.39-2.58-7.18-2.58h-8.15v22.52
	c0,1.78,0.65,3.15,2.5,3.95c0.97,0.4,4.68,0.81,6.13,0.89v0.56H47.35l-17.11,43.2h-1.81l6.4-16.16
	c-8.22-20.8-17.32-42.46-20.31-49.96c-0.65-1.62-1.37-3.15-3.31-4.28c-1.1-0.61-2.48-0.9-3.75-1.04v-0.66h24.25v0.56
	c-2.82,0.16-8.15,0.81-8.56,2.74c-0.16,0.73,0.08,1.62,0.32,2.26l5.73,14.77h19.71l3.71-9.37c0.25-0.77,0.47-1.47,0.64-2.01
	c0.56-1.78,1.13-3.71,1.13-4.84c0-2.91-7.02-3.39-9.85-3.55v-0.56h12.43l17.73-44.79h1.81L69.19,30.75z M48.48,78.47H29.7
	l9.38,23.73L48.48,78.47z M55.32,65.77l-7.71,19.46c1.77-0.14,4.37-0.41,5.2-0.73c1.94-0.73,2.5-2.18,2.5-3.95V65.77z"/>
</svg>
