<?xml version="1.0" encoding="utf-8"?>
<!-- Generator: Adobe Illustrator 22.1.0, SVG Export Plug-In . SVG Version: 6.00 Build 0)  -->
<svg version="1.1" id="Layer_1" xmlns="http://www.w3.org/2000/svg" xmlns:xlink="http://www.w3.org/1999/xlink" x="0px" y="0px"
	 viewBox="0 0 40 40" style="enable-background:new 0 0 40 40;" xml:space="preserve">

<path id="disc" d="M20,3.7C11,3.7,3.7,11,3.7,20S11,36.3,20,36.3S36.3,29,36.3,20S29,3.7,20,3.7z M24.3,13.9l3.5-0.8
		c0.3-0.1,0.6,0.1,0.6,0.4l0.8,3.5c0.1,0.3-0.1,0.6-0.4,0.6l-3.5,0.8c-0.3,0.1-0.6-0.1-0.6-0.4l-0.8-3.5C23.8,14.3,24,14,24.3,13.9z
		 M19,15.1l3.5-0.8c0.3-0.1,0.6,0.1,0.6,0.4l0.8,3.5c0.1,0.3-0.1,0.6-0.4,0.6L20,19.6c-0.3,0.1-0.6-0.1-0.6-0.4l-0.8-3.5
		C18.6,15.5,18.7,15.2,19,15.1z M14.1,20.4l-0.8-3.5c-0.1-0.3,0.1-0.6,0.4-0.6l3.5-0.8c0.3-0.1,0.6,0.1,0.6,0.4l0.8,3.5
		c0.1,0.3-0.1,0.6-0.4,0.6l-3.5,0.8C14.5,20.9,14.2,20.7,14.1,20.4z M20.6,30.6l-3.5,0.8c-0.3,0.1-0.6-0.1-0.6-0.4l-0.8-3.5
		c-0.1-0.3,0.1-0.6,0.4-0.6l3.5-0.8c0.3-0.1,0.6,0.1,0.6,0.4L21,30C21.1,30.3,20.9,30.5,20.6,30.6z M24.7,24.1l-3.5,0.8
		c-0.3,0.1-0.6-0.1-0.6-0.4L19.8,21c-0.1-0.3,0.1-0.6,0.4-0.6l3.5-0.8c0.3-0.1,0.6,0.1,0.6,0.4l0.8,3.5C25.2,23.8,25,24.1,24.7,24.1
		z M25.9,23.3l-0.8-3.5c-0.1-0.3,0.1-0.6,0.4-0.6l3.5-0.8c0.3-0.1,0.6,0.1,0.6,0.4l0.8,3.5c0.1,0.3-0.1,0.6-0.4,0.6l-3.5,0.8
		C26.2,23.8,25.9,23.6,25.9,23.3z M31.2,28.2L27.7,29c-0.3,0.1-0.6-0.1-0.6-0.4l-0.8-3.5c-0.1-0.3,0.1-0.6,0.4-0.6l3.5-0.8
		c0.3-0.1,0.6,0.1,0.6,0.4l0.8,3.5C31.6,27.9,31.4,28.2,31.2,28.2z"/>

<path id="pixels" d="M18.5,15.8c-0.1-0.3,0.1-0.7,0.5-0.8l3.5-0.8c0.4-0.1,0.7,0.1,0.8,0.5l0.8,3.5c0,0.2,0,0.3-0.1,0.5
	c-0.1,0.1-0.2,0.2-0.4,0.3L20,19.8l-0.1,0c-0.1,0-0.2,0-0.3-0.1c-0.1-0.1-0.2-0.2-0.3-0.4L18.5,15.8z M18.8,19.4L18,15.9
	c-0.1-0.3-0.4-0.6-0.8-0.5l-3.5,0.8c-0.2,0-0.3,0.1-0.4,0.3c-0.1,0.1-0.1,0.3-0.1,0.5l0.8,3.5c0.1,0.3,0.3,0.5,0.6,0.5l0.1,0
	l3.5-0.8C18.6,20.1,18.8,19.7,18.8,19.4z M24.6,18.1c0,0.2,0.1,0.3,0.3,0.4c0.1,0.1,0.2,0.1,0.3,0.1l0.1,0l3.5-0.8
	c0.2,0,0.3-0.1,0.4-0.3c0.1-0.1,0.1-0.3,0.1-0.5l-0.8-3.5c-0.1-0.3-0.4-0.6-0.8-0.5l-3.5,0.8c-0.3,0.1-0.6,0.4-0.5,0.8L24.6,18.1z
	 M31.7,27.6l-0.8-3.5c-0.1-0.3-0.4-0.6-0.8-0.5l-3.5,0.8c-0.2,0-0.3,0.1-0.4,0.3c-0.1,0.1-0.1,0.3-0.1,0.5l0.8,3.5
	c0,0.2,0.1,0.3,0.3,0.4c0.1,0.1,0.2,0.1,0.3,0.1l0.1,0l3.5-0.8c0.2,0,0.3-0.1,0.4-0.3C31.7,27.9,31.7,27.8,31.7,27.6z M20.3,26.5
	c-0.1-0.3-0.4-0.6-0.8-0.5l-3.5,0.8c-0.2,0-0.3,0.1-0.4,0.3c-0.1,0.1-0.1,0.3-0.1,0.5l0.8,3.5c0,0.2,0.1,0.3,0.3,0.4
	c0.1,0.1,0.2,0.1,0.3,0.1l0.1,0l3.5-0.8c0.3-0.1,0.6-0.4,0.5-0.8L20.3,26.5z M26.5,23.9l3.5-0.8c0.3-0.1,0.6-0.4,0.5-0.8l-0.8-3.5
	c-0.1-0.3-0.4-0.6-0.8-0.5l-3.5,0.8c-0.3,0.1-0.6,0.4-0.5,0.8l0.8,3.5c0,0.2,0.1,0.3,0.3,0.4c0.1,0.1,0.2,0.1,0.3,0.1L26.5,23.9z
	 M24.4,20c-0.1-0.3-0.4-0.6-0.8-0.5l-3.5,0.8c-0.2,0-0.3,0.1-0.4,0.3c-0.1,0.1-0.1,0.3-0.1,0.5l0.8,3.5c0,0.2,0.1,0.3,0.3,0.4
	c0.1,0.1,0.2,0.1,0.3,0.1l0.1,0l3.5-0.8c0.3-0.1,0.6-0.4,0.5-0.8L24.4,20z"/>
</svg>
